<svg xmlns="http://www.w3.org/2000/svg" xmlns:svg="http://www.w3.org/2000/svg" id="svg4627" width="1024" height="1024" version="1.1" viewBox="0 0 270.933 270.933"><metadata id="metadata4624"/><g id="layer1" transform="translate(1.2516975e-6,-26.066642)"><g id="g4645" transform="translate(0,-7.964442e-6)"><g id="g4608" transform="matrix(11.395124,0,0,11.395124,-976.50039,-882.01502)"><path id="path4604" d="m 89.441569,80.202363 c -4.314359,-0.08215 -4.314359,6.431634 0,6.349484 h 2.601907 c 4.314357,0.08215 4.314357,-6.431634 0,-6.349484 z m 13.696321,8.201051 c -4.293622,-0.06072 -4.293622,6.410722 0,6.35 h 2.60191 c 4.29362,0.06072 4.29362,-6.410724 0,-6.35 z m -13.712341,8.201565 c -4.293532,-0.06063 -4.293532,6.410631 0,6.350001 h 2.601907 c 4.293531,0.0606 4.293531,-6.410625 0,-6.350001 z" style="color:#000;font-style:normal;font-variant:normal;font-weight:400;font-stretch:normal;font-size:medium;line-height:normal;font-family:sans-serif;font-variant-ligatures:normal;font-variant-position:normal;font-variant-caps:normal;font-variant-numeric:normal;font-variant-alternates:normal;font-feature-settings:normal;text-indent:0;text-align:start;text-decoration:none;text-decoration-line:none;text-decoration-style:solid;text-decoration-color:#000;letter-spacing:normal;word-spacing:normal;text-transform:none;writing-mode:lr-tb;direction:ltr;text-orientation:mixed;dominant-baseline:auto;baseline-shift:baseline;text-anchor:start;white-space:normal;shape-padding:0;clip-rule:nonzero;display:inline;overflow:visible;visibility:visible;opacity:1;isolation:auto;mix-blend-mode:normal;color-interpolation:sRGB;color-interpolation-filters:linearRGB;solid-color:#000;solid-opacity:1;vector-effect:none;fill:#b43278;fill-opacity:1;fill-rule:nonzero;stroke:none;stroke-width:6.3499999;stroke-linecap:round;stroke-linejoin:miter;stroke-miterlimit:4;stroke-dasharray:none;stroke-dashoffset:0;stroke-opacity:1;color-rendering:auto;image-rendering:auto;shape-rendering:auto;text-rendering:auto;enable-background:accumulate"/><path id="path4606" d="m 99.752893,80.202362 c -4.314356,-0.08215 -4.314356,6.431635 0,6.349484 h 5.970697 c 4.31436,0.08215 4.31436,-6.431634 0,-6.349484 z m -10.327018,8.201052 c -4.293624,-0.06072 -4.293624,6.410722 0,6.35 h 5.970696 c 4.293624,0.06072 4.293624,-6.410725 0,-6.35 z m 10.34252,8.201564 c -4.293528,-0.06063 -4.293528,6.410632 0,6.350002 h 5.971215 c 4.29353,0.0606 4.29353,-6.410626 0,-6.350002 z" style="color:#000;font-style:normal;font-variant:normal;font-weight:400;font-stretch:normal;font-size:medium;line-height:normal;font-family:sans-serif;font-variant-ligatures:normal;font-variant-position:normal;font-variant-caps:normal;font-variant-numeric:normal;font-variant-alternates:normal;font-feature-settings:normal;text-indent:0;text-align:start;text-decoration:none;text-decoration-line:none;text-decoration-style:solid;text-decoration-color:#000;letter-spacing:normal;word-spacing:normal;text-transform:none;writing-mode:lr-tb;direction:ltr;text-orientation:mixed;dominant-baseline:auto;baseline-shift:baseline;text-anchor:start;white-space:normal;shape-padding:0;clip-rule:nonzero;display:inline;overflow:visible;visibility:visible;opacity:1;isolation:auto;mix-blend-mode:normal;color-interpolation:sRGB;color-interpolation-filters:linearRGB;solid-color:#000;solid-opacity:1;vector-effect:none;fill:#f65a8e;fill-opacity:1;fill-rule:nonzero;stroke:none;stroke-width:6.3499999;stroke-linecap:round;stroke-linejoin:miter;stroke-miterlimit:4;stroke-dasharray:none;stroke-dashoffset:0;stroke-opacity:1;color-rendering:auto;image-rendering:auto;shape-rendering:auto;text-rendering:auto;enable-background:accumulate"/></g></g></g></svg>